<svg id="SvgjsSvg1017" xmlns="http://www.w3.org/2000/svg" version="1.1" xmlns:xlink="http://www.w3.org/1999/xlink" xmlns:svgjs="http://svgjs.com/svgjs" width="32" height="28"><defs id="SvgjsDefs1018"></defs><path id="SvgjsPath1019" d="M390 1059C384.037 1059 379 1062.21 379 1066C379 1066.28 379.224 1066.5 379.5 1066.5C379.776 1066.5 380 1066.28 380 1066C380 1062.8 384.673 1060 390 1060C390.276 1060 390.5 1059.78 390.5 1059.5C390.5 1059.22 390.276 1059 390 1059ZM390 1054C381.163 1054 374 1059.37 374 1066C374 1070.13 376.779 1073.77 381.008 1075.93C381.008 1075.95 381 1075.97 381 1076C381 1077.79 379.661 1079.72 379.072 1080.74C379.073 1080.74 379.074 1080.74 379.074 1080.74C379.027 1080.85 379 1080.97 379 1081.09C379 1081.59 379.405 1082 379.906 1082C380 1082 380.165 1081.97 380.161 1081.99C383.286 1081.48 386.23 1078.6 386.914 1077.77C387.913 1077.92 388.943 1078 390 1078C398.836 1078 406 1072.63 406 1066C406 1059.37 398.836 1054 390 1054ZM390 1076C389.083 1076 388.143 1075.93 387.204 1075.79C387.107 1075.78 387.01 1075.77 386.914 1075.77C386.32 1075.77 385.751 1076.04 385.368 1076.5C384.94 1077.02 383.723 1078.19 382.283 1079.04C382.673 1078.1499999999999 382.97900000000004 1077.1399999999999 382.999 1076.11C383.005 1076.05 383.00800000000004 1075.9799999999998 383.00800000000004 1075.9299999999998C383.00800000000004 1075.1699999999998 382.58700000000005 1074.4899999999998 381.91800000000006 1074.1399999999999C378.21200000000005 1072.2499999999998 376.00000000000006 1069.2099999999998 376.00000000000006 1065.9999999999998C376.00000000000006 1060.4899999999998 382.28000000000003 1055.9999999999998 390.00000000000006 1055.9999999999998C397.7200000000001 1055.9999999999998 404.00000000000006 1060.4899999999998 404.00000000000006 1065.9999999999998C404.00000000000006 1071.5099999999998 397.7200000000001 1075.9999999999998 390.00000000000006 1075.9999999999998Z " fill="#666d89" transform="matrix(1,0,0,1,-374,-1054)"></path></svg>