<svg id="SvgjsSvg1011" xmlns="http://www.w3.org/2000/svg" version="1.1" xmlns:xlink="http://www.w3.org/1999/xlink" xmlns:svgjs="http://svgjs.com/svgjs" width="32" height="28"><defs id="SvgjsDefs1012"></defs><path id="SvgjsPath1013" d="M723.192 933.792C719.562 930.201 713.761 930.126 710 933.505C706.24 930.126 700.439 930.201 696.808 933.792C693.067 937.4920000000001 693.067 943.491 696.808 947.192C697.878 948.249 707.861 958.122 707.861 958.122C709.044 959.2909999999999 710.957 959.2909999999999 712.139 958.122C712.139 958.122 723.071 947.3109999999999 723.192 947.192C726.933 943.491 726.933 937.492 723.192 933.792ZM721.765 945.781L710.713 956.7109999999999C710.3199999999999 957.0999999999999 709.679 957.0999999999999 709.288 956.7109999999999L698.235 945.781C695.285 942.8639999999999 695.285 938.1189999999999 698.235 935.202C701.0790000000001 932.39 705.6510000000001 932.291 708.644 934.981L710 936.199L711.356 934.981C714.349 932.2909999999999 718.923 932.39 721.765 935.202C724.716 938.119 724.716 942.864 721.765 945.781ZM703.252 936.026C703.25 936.026 703.25 936.0269999999999 703.2479999999999 936.0269999999999C700.9029999999999 936.0289999999999 699.002 937.9279999999999 699.002 940.271C699.002 940.5469999999999 699.2249999999999 940.771 699.502 940.771C699.7779999999999 940.771 700.002 940.5469999999999 700.002 940.271L700.002 940.27C700.002 938.4789999999999 701.457 937.025 703.251 937.025L703.252 937.025C703.5279999999999 937.025 703.752 936.802 703.752 936.526C703.752 936.25 703.5279999999999 936.026 703.252 936.026Z " fill="#666d89" transform="matrix(1,0,0,1,-694,-931)"></path></svg>