<svg id="SvgjsSvg1008" xmlns="http://www.w3.org/2000/svg" version="1.1" xmlns:xlink="http://www.w3.org/1999/xlink" xmlns:svgjs="http://svgjs.com/svgjs" width="22" height="32"><defs id="SvgjsDefs1009"></defs><path id="SvgjsPath1010" d="M390 928C383.925 928 379 932.925 379 939C379 943.031 382.689 947.303 384.031 951.055C386.034 956.651 385.813 960 390 960C394.25 960 393.965 956.666 395.969 951.078C397.316 947.319 401 943 401 939C401 932.925 396.075 928 390 928ZM394.672 949L385.339 949C384.841 947.921 384.243 946.84 383.653 945.783C382.34900000000005 943.448 381 941.033 381 939C381 934.037 385.037 930 390 930C394.963 930 399 934.037 399 939C399 941.018 397.65 943.446 396.345 945.795C395.76000000000005 946.8489999999999 395.16700000000003 947.9259999999999 394.672 949ZM392.593 955.176L387.634 955.796C387.457 955.283 387.267 954.6840000000001 387.036 953.903C387.033 953.893 387.029 953.881 387.027 953.871L393.216 953.098C393.128 953.394 393.033 953.704 392.952 953.982C392.821 954.4309999999999 392.703 954.822 392.593 955.1759999999999ZM386.736 952.908C386.555 952.307 386.34999999999997 951.672 386.121 951L393.887 951C393.765 951.36 393.642 951.719 393.535 952.059ZM390 958C388.987 958 388.521 957.884 388.003 956.75L392.241 956.22C391.628 957.873 391.181 958 390 958ZM390 933C386.691 933 384 935.691 384 939C384 939.276 384.224 939.5 384.5 939.5C384.776 939.5 385 939.276 385 939C385 936.243 387.243 934 390 934C390.276 934 390.5 933.777 390.5 933.5C390.5 933.224 390.276 933 390 933Z " fill="#666d89" transform="matrix(1,0,0,1,-379,-928)"></path></svg>