<svg id="SvgjsSvg1000" xmlns="http://www.w3.org/2000/svg" version="1.1" xmlns:xlink="http://www.w3.org/1999/xlink" xmlns:svgjs="http://svgjs.com/svgjs" width="33" height="32"><defs id="SvgjsDefs1001"></defs><path id="SvgjsPath1007" d="M84.3955 931.58C82.75 929.938 80.585 929 78.4492 929C76.6494 929 74.9902 929.668 73.78030000000001 930.877L68.91310000000001 935.781C68.89840000000001 935.795 68.88090000000001 935.805 68.86620000000002 935.819C68.85840000000002 935.827 68.85350000000003 935.838 68.84570000000002 935.846L68.84770000000002 935.848L58.517600000000016 946.256C58.042000000000016 946.7289999999999 57.696300000000015 947.319 57.50490000000001 947.961L55.156300000000016 956.469C55.153300000000016 956.4920000000001 55.000000000000014 957.1610000000001 55.000000000000014 957.5C55.000000000000014 959.433 56.56930000000001 961 58.50490000000001 961C58.889600000000016 961 59.634900000000016 960.817 59.66210000000002 960.813L68.13960000000002 958.584C68.78320000000002 958.3929999999999 69.36910000000002 958.045 69.84470000000002 957.569L85.10740000000001 942.1859999999999C87.88380000000001 939.406 87.57130000000001 934.7499999999999 84.39550000000001 931.5799999999999ZM69.7939 949.256C69.42089999999999 948.6429999999999 68.99709999999999 948.052 68.4717 947.528C67.8605 946.916 67.1592 946.439 66.4277 946.035L75.9601 936.504C76.707 936.836 77.42479999999999 937.309 78.0576 937.942C78.59769999999999 938.481 79.0166 939.0840000000001 79.33789999999999 939.712ZM71.0146 952.796C70.93260000000001 951.893 70.6777 951.008 70.2959 950.168L79.7501 940.715C80.3281 942.541 80.0322 944.451 78.7646 945.719C78.7568 945.7270000000001 78.7472 945.7320000000001 78.7393 945.739L78.752 945.7520000000001L71.0244 953.541C71.0254 953.293 71.0372 953.0490000000001 71.0146 952.796ZM65.4864 945.563C64.5605 945.1899999999999 63.589800000000004 944.977 62.6182 944.9639999999999L70.32130000000001 937.202C71.50000000000001 936.052 73.21780000000001 935.721 74.90920000000001 936.141ZM63.874 957.637C63.8496 956.2959999999999 63.3037 954.9 62.2021 953.8C61.1602 952.756 59.7969 952.155 58.4365 952.101L59.4326 948.493C59.5049 948.253 59.6475 948.017 59.8233 947.8090000000001C61.829100000000004 946.373 64.9141 946.7970000000001 67.05760000000001 948.9420000000001C69.3242 951.2080000000001 69.6748 954.5280000000001 67.9287 956.5100000000001C67.8126 956.57 67.6953 956.6290000000001 67.56930000000001 956.6670000000001ZM59.1681 958.873C59.058600000000006 958.899 58.7197 958.985 58.4893 959C57.667 958.991 57 958.322 57 957.5C57.0117 957.333 57.0791 957.044 57.1016 956.937L58.1543 953.123C59.2969 953.0920000000001 60.5273 953.537 61.494099999999996 954.5060000000001C62.4766 955.488 62.9385 956.7410000000001 62.887699999999995 957.897ZM83.6924 940.773L82.0078 942.47C82.0078 942.244 82.0352 942.027 82.0146 941.796C81.8389 939.8610000000001 80.9355 937.99 79.4717 936.527C77.8429 934.898 75.6816 933.962 73.54299999999999 933.956L75.2002 932.2860000000001C76.0274 931.4590000000001 77.1836 931.0000000000001 78.44919999999999 931.0000000000001C80.05959999999999 931.0000000000001 81.71189999999999 931.7280000000001 82.98239999999998 932.9950000000001C84.17579999999998 934.1860000000001 84.88769999999998 935.6660000000002 84.98829999999998 937.1630000000001C85.08209999999998 938.5610000000001 84.62209999999997 939.8420000000001 83.69239999999998 940.7730000000001Z " fill="#666d89" transform="matrix(1,0,0,1,-55,-929)"></path></svg>