<svg id="SvgjsSvg1014" xmlns="http://www.w3.org/2000/svg" version="1.1" xmlns:xlink="http://www.w3.org/1999/xlink" xmlns:svgjs="http://svgjs.com/svgjs" width="22" height="32"><defs id="SvgjsDefs1015"></defs><path id="SvgjsPath1016" d="M79 1052L63 1052C61.3428 1052 60 1053.34 60 1055L60 1081C60 1082.66 61.3428 1084 63 1084L79 1084C80.6572 1084 82 1082.66 82 1081L82 1055C82 1053.34 80.6572 1052 79 1052ZM80.0001 1078L62 1078L62 1058L80.0001 1058ZM80.0001 1081C80.0001 1081.55 79.5519 1082 79 1082L63 1082C62.4482 1082 62 1081.55 62 1081L62 1079L80.0001 1079ZM80.0001 1057L62 1057L62 1055C62 1054.45 62.4482 1054 63 1054L79 1054C79.5519 1054 80.0001 1054.45 80.0001 1055ZM73 1055.5C73 1055.22 72.7764 1055 72.5 1055L69.5 1055C69.2237 1055 69 1055.22 69 1055.5C69 1055.78 69.2237 1056 69.5 1056L72.5 1056C72.7764 1056 73 1055.78 73 1055.5ZM72 1080.5C72 1080.22 71.7764 1080 71.5 1080L70.5 1080C70.2236 1080 70 1080.22 70 1080.5C70 1080.77 70.2236 1081 70.5 1081L71.5 1081C71.7764 1081 72 1080.77 72 1080.5Z " fill="#666d89" transform="matrix(1,0,0,1,-60,-1052)"></path></svg>