<svg id="SvgjsSvg1020" xmlns="http://www.w3.org/2000/svg" version="1.1" xmlns:xlink="http://www.w3.org/1999/xlink" xmlns:svgjs="http://svgjs.com/svgjs" width="34" height="31"><defs id="SvgjsDefs1021"></defs><path id="SvgjsPath1022" d="M725.881 1063.56C725.6039999999999 1062.76 724.8929999999999 1062.1699999999998 724.038 1062.05L715.712 1060.81L712.092 1053.29C711.712 1052.51 710.896 1052 710 1052C709.104 1052 708.289 1052.51 707.908 1053.29L704.289 1060.81L695.962 1062.05C695.106 1062.1699999999998 694.395 1062.76 694.12 1063.56C693.844 1064.36 694.052 1065.24 694.657 1065.84L700.759 1071.9299999999998L699.344 1080.3899999999999C699.2 1081.2399999999998 699.5690000000001 1082.09 700.292 1082.59C700.6890000000001 1082.86 701.1560000000001 1083 701.623 1083C702.0070000000001 1083 702.3910000000001 1082.91 702.7410000000001 1082.72L710.0000000000001 1078.81L717.2600000000001 1082.72C717.6090000000002 1082.91 717.9940000000001 1083 718.3770000000001 1083C718.844 1083 719.3100000000001 1082.86 719.7090000000001 1082.59C720.431 1082.09 720.8000000000001 1081.24 720.657 1080.3899999999999L719.241 1071.9299999999998L725.3439999999999 1065.84C725.948 1065.24 726.155 1064.36 725.881 1063.56ZM717.588 1070.36C717.076 1070.87 716.8439999999999 1071.59 716.962 1072.3L718.377 1080.75L711.1179999999999 1076.84C710.7689999999999 1076.6499999999999 710.385 1076.56 709.9999999999999 1076.56C709.6159999999999 1076.56 709.2309999999999 1076.6499999999999 708.8829999999999 1076.84L701.6229999999999 1080.75L703.039 1072.3C703.157 1071.59 702.925 1070.87 702.413 1070.36L696.311 1064.27L704.6370000000001 1063.03C705.398 1062.92 706.0530000000001 1062.44 706.3810000000001 1061.76L710.0000000000001 1054.25L713.6200000000001 1061.76C713.9470000000001 1062.44 714.6010000000001 1062.92 715.3620000000001 1063.03L723.6890000000001 1064.27Z " fill="#666d89" transform="matrix(1,0,0,1,-693,-1052)"></path></svg>